<svg width="137" height="199" viewBox="0 0 137 199" fill="none" xmlns="http://www.w3.org/2000/svg">
<g filter="url(#filter0_d_128_4069)">
<path d="M118.5 66.7648C118.5 95.6299 108 104.918 68.5 164.5C29.5 105.441 18.5 95.6299 18.5 66.7648C18.5 37.8998 40.8858 14.5 68.5 14.5C96.1142 14.5 118.5 37.8998 118.5 66.7648Z" stroke="#4FC4FF" stroke-opacity="0.7" stroke-width="29"/>
<path d="M33.1374 60.5C33.1374 60.5 29.1192 99 69.3353 99C109.551 99 103.499 60 103.499 60C103.499 60 105.509 72.5 101.488 84.5C97.4678 96.5 89.5 107.5 87 111C84.5 114.5 87 111 78 124.5C69 138 68.5 138.5 68.5 138.5C68.5 138.5 64.7519 133 52 114C39.2481 95 39.0002 93.2521 35.5001 84.5C32 75.7479 33.1374 60.5 33.1374 60.5Z" fill="#4FC4FF" fill-opacity="0.7"/>
</g>
<defs>
<filter id="filter0_d_128_4069" x="0" y="0" width="137" height="198.778" filterUnits="userSpaceOnUse" color-interpolation-filters="sRGB">
<feFlood flood-opacity="0" result="BackgroundImageFix"/>
<feColorMatrix in="SourceAlpha" type="matrix" values="0 0 0 0 0 0 0 0 0 0 0 0 0 0 0 0 0 0 127 0" result="hardAlpha"/>
<feOffset dy="4"/>
<feGaussianBlur stdDeviation="2"/>
<feComposite in2="hardAlpha" operator="out"/>
<feColorMatrix type="matrix" values="0 0 0 0 0 0 0 0 0 0.617899 0 0 0 0 0.756611 0 0 0 0.4 0"/>
<feBlend mode="normal" in2="BackgroundImageFix" result="effect1_dropShadow_128_4069"/>
<feBlend mode="normal" in="SourceGraphic" in2="effect1_dropShadow_128_4069" result="shape"/>
</filter>
</defs>
</svg>
