<svg width="100" height="146" viewBox="0 0 100 146" fill="none" xmlns="http://www.w3.org/2000/svg">
<path d="M50 15C69.33 15 85 30.67 85 50C85 59.7503 80.9027 71.0422 72.1748 85.9736C66.1436 96.2916 58.6421 107.176 50.0186 119.593C41.8094 107.747 34.4327 97.0189 28.373 86.6982C19.3771 71.3766 15 59.6471 15 50C15 30.67 30.67 15 50 15Z" stroke="#DA1515" stroke-opacity="0.7" stroke-width="30"/>
<path d="M70 50C70 61.3218 58.5 81 50 93C42 81 30 61.3218 30 50C30 60.5 38.9543 70 50 70C61.0457 70 69.5 61 70 50Z" fill="#DA1515" fill-opacity="0.7"/>
</svg>
